<svg width="220" height="120" fill="none" xmlns="http://www.w3.org/2000/svg"><path d="M90.05 95.72H0v24.135h90.05V95.721z" fill="#FF8A8A"/><path d="M21.553 33.53v-2.794h2.643v-5.588h-2.643v-2.795H8.336V33.53h13.217zm0-16.765v-2.794h2.643V8.383h-2.643V5.59H8.336v11.176h13.217zM3.05 39.118V0h21.146v2.794h2.644v2.794h2.643v11.176H26.84v5.588h2.643V33.53H26.84v2.794h-2.644v2.794H3.05zm31.72-.001V0h5.286v33.529h21.147v5.588H34.769zm37.006 0v-5.588h5.287V5.589h-5.287V0h15.86v5.588H82.35v27.94h5.286v5.589h-15.86zm26.434 0v-5.588h18.503v-2.794h2.643v-5.588h-2.643v-2.795h-13.217v-2.794h-2.643v-2.794H98.21V5.588h2.643V2.794h2.643V0h21.147v5.588H106.14v2.794h-2.644v5.588h2.644v2.794h13.216v2.794H122v2.794h2.643V33.53H122v2.794h-2.644v2.794H98.21zm31.72 0V0h5.286v16.764h2.644V13.97h2.643v-2.794h2.643V8.382h2.644V5.588h2.643V2.794h2.643V0h5.287v5.588h-2.643v2.794h-2.644v2.794h-2.643v2.794h-2.643v2.794h-2.644v5.588h2.644v2.794h2.643v2.794h2.643v2.795h2.644v2.794h2.643v5.588h-5.287v-2.794h-2.643v-2.794h-2.643v-2.794h-2.644V27.94h-2.643v-2.794h-2.643v-2.795h-2.644v16.765h-5.286zm50.223-5.588v-2.794h2.644V8.382h-2.644V5.588H169.58v2.794h-2.643v22.353h2.643v2.794h10.573zm-13.216 5.588v-2.794h-2.644v-2.794h-2.643V5.589h2.643V2.793h2.644V0h15.86v2.794h2.643v2.794h2.643v27.94h-2.643v2.795h-2.643v2.794h-15.86zM21.553 78.233V75.44h2.643v-5.588h-2.643v-2.794H8.336v11.176h13.217zm0-16.764v-2.794h2.643v-5.588h-2.643v-2.794H8.336v11.176h13.217zM3.05 83.82V44.705h21.146v2.794h2.644v2.794h2.643v11.176H26.84v5.588h2.643v11.176H26.84v2.794h-2.644v2.794H3.05zm50.223-22.351v-2.794h2.643v-5.588h-2.643v-2.794H40.056v11.176h13.217zM34.769 83.82V44.705h21.147v2.794h2.644v2.794h2.643v11.176H58.56v2.794h-2.644v2.794H50.63v2.794h2.643v2.794h2.643v2.794h2.644v2.794h2.643v5.588h-5.287v-2.794h-2.643v-2.794H50.63V75.44h-2.644v-2.794h-2.643v-5.588h-5.287v16.764H34.77zm31.721.001V72.645h2.643v-2.794h2.643v-2.794h2.644v-2.794h2.643v-2.794h2.643v-2.794h2.644V55.88h2.643v-2.794h2.643v-2.794H66.49v-5.588h26.433V55.88h-2.644v2.794h-2.643v2.794h-2.643v2.794H82.35v2.794h-2.644v2.794h-2.643v2.794h-2.644v2.794h-2.643v2.794h21.147v5.588H66.49zm31.72 0V44.705h26.433v5.588h-21.147v11.176h15.86v5.588h-15.86v11.176h21.147v5.588H98.21zm37.006 0v-2.794h-2.643v-2.794h-2.643v-27.94h2.643v-2.794h2.643v-2.794h15.86v2.794h2.644v2.794h2.643v5.588h-5.287v-2.794h-2.643v-2.794H137.86v2.794h-2.644v22.352h2.644v2.794h7.93V75.44h2.643v-2.794h2.643v-5.588h-7.93V61.47h13.217v22.35h-5.287v-2.794h-2.643v2.794h-13.217zm31.721 0v-2.794h-2.644v-2.794h-2.643V44.705h5.287v30.734h2.643v2.794h10.573V75.44h2.644V44.705h5.286v33.528h-2.643v2.794h-2.643v2.794h-15.86zm47.58-5.587V75.44h-2.644v-2.795h-2.643v-2.794h-2.643v-2.794h-2.644v-2.794H201.3V61.47h-2.643v-2.794h-2.644v-2.794h-2.643v-5.588h5.287v2.794h2.643v2.794h2.643v2.794h2.644v2.794h2.643v2.794h2.643v2.794h2.644v2.794h2.643v2.794h2.643v5.589h-5.286z" fill="#fff"/><path d="M3.194 117.172V97.909h18.224v3.852H6.838v3.853h10.935v3.853H6.838v7.705H3.194zm21.869-.001V97.908h18.224v3.853h-14.58v3.852h10.935v3.853H28.707v3.853h14.58v3.852H25.063zm21.868 0v-3.852h14.58v-3.853H46.93V97.908h18.224v3.853H50.576v3.852h14.58v11.558H46.93zm29.159 0v-15.41H68.8v-3.853h18.224v3.853h-7.29v15.41H76.09z" fill="#8955FC"/></svg>