<svg width="220" height="120" viewBox="0 0 220 120" fill="none" xmlns="http://www.w3.org/2000/svg">
<path d="M90.0498 95.7207H0V119.855H90.0498V95.7207Z" fill="#FF8A8A"/>
<path d="M21.5529 33.5296V30.7356H24.1963V25.1475H21.5529V22.3534H8.33624V33.5296H21.5529ZM21.5529 16.7653V13.9712H24.1963V8.38314H21.5529V5.58908H8.33624V16.7653H21.5529ZM3.04956 39.1177V0.000976562H24.1963V2.79503H26.8396V5.58908H29.4829V16.7653H26.8396V22.3534H29.4829V33.5296H26.8396V36.3237H24.1963V39.1177H3.04956Z" fill="white"/>
<path d="M34.7695 39.1167V0H40.0562V33.5286H61.2029V39.1167H34.7695Z" fill="white"/>
<path d="M71.7761 39.1167V33.5286H77.0628V5.58811H71.7761V0H87.6362V5.58811H82.3495V33.5286H87.6362V39.1167H71.7761Z" fill="white"/>
<path d="M98.2097 39.1167V33.5286H116.713V30.7346H119.356V25.1465H116.713V22.3524H103.496V19.5584H100.853V16.7643H98.2097V5.58811H100.853V2.79405H103.496V0H124.643V5.58811H106.14V8.38216H103.496V13.9703H106.14V16.7643H119.356V19.5584H122V22.3524H124.643V33.5286H122V36.3227H119.356V39.1167H98.2097Z" fill="white"/>
<path d="M129.93 39.1167V0H135.216V16.7643H137.86V13.9703H140.503V11.1762H143.146V8.38216H145.79V5.58811H148.433V2.79405H151.076V0H156.363V5.58811H153.72V8.38216H151.076V11.1762H148.433V13.9703H145.79V16.7643H143.146V22.3524H145.79V25.1465H148.433V27.9405H151.076V30.7346H153.72V33.5286H156.363V39.1167H151.076V36.3227H148.433V33.5286H145.79V30.7346H143.146V27.9405H140.503V25.1465H137.86V22.3524H135.216V39.1167H129.93Z" fill="white"/>
<path d="M180.153 33.5286V30.7346H182.797V8.38216H180.153V5.58811H169.58V8.38216H166.937V30.7346H169.58V33.5286H180.153ZM166.937 39.1167V36.3227H164.293V33.5286H161.65V5.58811H164.293V2.79405H166.937V0H182.797V2.79405H185.44V5.58811H188.083V33.5286H185.44V36.3227H182.797V39.1167H166.937Z" fill="white"/>
<path d="M21.5529 78.2332V75.4392H24.1963V69.8511H21.5529V67.057H8.33624V78.2332H21.5529ZM21.5529 61.4689V58.6749H24.1963V53.0868H21.5529V50.2927H8.33624V61.4689H21.5529ZM3.04956 83.8213V44.7046H24.1963V47.4986H26.8396V50.2927H29.4829V61.4689H26.8396V67.057H29.4829V78.2332H26.8396V81.0273H24.1963V83.8213H3.04956Z" fill="white"/>
<path d="M53.2729 61.4689V58.6749H55.9162V53.0868H53.2729V50.2927H40.0562V61.4689H53.2729ZM34.7695 83.8213V44.7046H55.9162V47.4986H58.5596V50.2927H61.2029V61.4689H58.5596V64.263H55.9162V67.057H50.6296V69.8511H53.2729V72.6451H55.9162V75.4392H58.5596V78.2332H61.2029V83.8213H55.9162V81.0273H53.2729V78.2332H50.6296V75.4392H47.9862V72.6451H45.3429V67.057H40.0562V83.8213H34.7695Z" fill="white"/>
<path d="M66.4895 83.8213V72.6451H69.1328V69.8511H71.7762V67.057H74.4195V64.263H77.0629V61.4689H79.7062V58.6749H82.3495V55.8808H84.9929V53.0868H87.6362V50.2927H66.4895V44.7046H92.9229V55.8808H90.2795V58.6749H87.6362V61.4689H84.9929V64.263H82.3495V67.057H79.7062V69.8511H77.0629V72.6451H74.4195V75.4392H71.7762V78.2332H92.9229V83.8213H66.4895Z" fill="white"/>
<path d="M98.2097 83.8213V44.7046H124.643V50.2927H103.496V61.4689H119.356V67.057H103.496V78.2332H124.643V83.8213H98.2097Z" fill="white"/>
<path d="M135.216 83.8213V81.0273H132.573V78.2332H129.93V50.2927H132.573V47.4986H135.216V44.7046H151.076V47.4986H153.72V50.2927H156.363V55.8808H151.076V53.0868H148.433V50.2927H137.86V53.0868H135.216V75.4392H137.86V78.2332H145.79V75.4392H148.433V72.6451H151.076V67.057H143.146V61.4689H156.363V83.8213H151.076V81.0273H148.433V83.8213H135.216Z" fill="white"/>
<path d="M166.937 83.8213V81.0273H164.293V78.2332H161.65V44.7046H166.937V75.4392H169.58V78.2332H180.153V75.4392H182.797V44.7046H188.083V78.2332H185.44V81.0273H182.797V83.8213H166.937Z" fill="white"/>
<path d="M214.517 78.2335V75.4395H211.873V72.6454H209.23V69.8513H206.587V67.0573H203.943V64.2632H201.3V61.4692H198.657V58.6751H196.013V55.8811H193.37V50.293H198.657V53.087H201.3V55.8811H203.943V58.6751H206.587V61.4692H209.23V64.2632H211.873V67.0573H214.517V69.8513H217.16V72.6454H219.803V78.2335H214.517Z" fill="white"/>
<path d="M3.1936 117.172V97.9087H21.4177V101.761H6.83842V105.614H17.7729V109.467H6.83842V117.172H3.1936Z" fill="#8955FC"/>
<path d="M25.0625 117.171V97.9082H43.2866V101.761H28.7073V105.613H39.6417V109.466H28.7073V113.319H43.2866V117.171H25.0625Z" fill="#8955FC"/>
<path d="M46.9312 117.171V113.319H61.5104V109.466H46.9312V97.9082H65.1552V101.761H50.576V105.613H65.1552V117.171H46.9312Z" fill="#8955FC"/>
<path d="M76.0897 117.171V101.761H68.8V97.9082H87.0241V101.761H79.7345V117.171H76.0897Z" fill="#8955FC"/>
</svg>
